<?xml version="1.0" standalone="no"?>
<!DOCTYPE svg PUBLIC "-//W3C//DTD SVG 20010904//EN"
 "http://www.w3.org/TR/2001/REC-SVG-20010904/DTD/svg10.dtd">
<svg version="1.0" xmlns="http://www.w3.org/2000/svg"
 width="512.000000pt" height="512.000000pt" viewBox="0 0 512.000000 512.000000"
 preserveAspectRatio="xMidYMid meet">

<g transform="translate(0.000000,512.000000) scale(0.100000,-0.100000)"
fill="#000000" stroke="none">
<path d="M2370 5113 c-379 -36 -661 -116 -980 -278 -378 -193 -717 -497 -965
-865 -42 -63 -114 -191 -160 -285 -168 -340 -248 -661 -262 -1040 -15 -426 73
-832 263 -1214 133 -269 271 -459 488 -677 221 -220 412 -357 681 -489 188
-92 309 -137 500 -185 500 -126 1002 -102 1490 71 149 53 407 182 540 271 299
199 573 480 769 788 72 113 188 353 235 486 235 662 194 1372 -115 1993 -124
250 -263 447 -458 648 -216 224 -428 378 -711 518 -296 146 -572 225 -900 255
-102 9 -333 11 -415 3z m1362 -1516 c84 -49 124 -149 97 -244 -16 -59 -78
-124 -135 -141 -60 -18 -2208 -18 -2268 0 -81 25 -146 118 -146 210 0 82 78
178 162 198 18 5 530 7 1138 7 l1105 -2 47 -28z m-14 -846 c163 -84 161 -306
-3 -382 -38 -18 -91 -19 -1158 -19 -1081 0 -1119 1 -1155 19 -163 84 -161 298
3 384 27 15 150 16 1153 17 1086 0 1124 -1 1160 -19z m-24 -843 c57 -17 119
-82 135 -141 27 -95 -13 -195 -97 -244 l-47 -28 -1125 0 -1125 0 -47 28 c-84
49 -124 150 -98 245 14 53 83 127 132 141 53 15 2220 14 2272 -1z"/>
</g>
</svg>
